<svg width="10" height="10" viewBox="0 0 10 10" fill="none" xmlns="http://www.w3.org/2000/svg">
<path d="M0.701393 3.10661C0.741559 2.48824 1.23872 2.00363 1.85763 1.97296C2.75386 1.92856 4.03482 1.87501 4.99999 1.87501C5.96515 1.87501 7.24611 1.92856 8.14234 1.97296C8.76125 2.00363 9.25841 2.48824 9.29858 3.10661C9.33706 3.69905 9.37499 4.42803 9.37499 5.00001C9.37499 5.57199 9.33706 6.30097 9.29858 6.89342C9.25841 7.51178 8.76125 7.9964 8.14234 8.02706C7.24611 8.07146 5.96515 8.12501 4.99999 8.12501C4.03482 8.12501 2.75386 8.07146 1.85763 8.02706C1.23872 7.9964 0.741559 7.51178 0.701393 6.89342C0.662911 6.30097 0.624985 5.57199 0.624985 5.00001C0.624985 4.42803 0.662911 3.69905 0.701393 3.10661Z" fill="#FC0D1B"/>
<path d="M4.06252 3.74999V6.24999L6.56252 4.99999L4.06252 3.74999Z" fill="white"/>
</svg>
